PathFileType	4	(X/Y/Z)	S240501-1155_P07_T01_0-394.trc
DataRate	CameraRate	NumFrames	NumMarkers	Units	OrigDataRate	OrigDataStartFrame	OrigNumFrames
60	60	15	13	m	60	246	394
Frame#	Time	Nose			LEye			LEar			LShoulder			LElbow			LWrist			LHip			REye			REar			RShoulder			RElbow			RWrist			RHip		
		X1	Y1	Z1	X2	Y2	Z2	X3	Y3	Z3	X4	Y4	Z4	X5	Y5	Z5	X6	Y6	Z6	X7	Y7	Z7	X8	Y8	Z8	X9	Y9	Z9	X10	Y10	Z10	X11	Y11	Z11	X12	Y12	Z12	X13	Y13	Z13
247	4.116666666666666	-0.058043936403958864	1.6604005021498074	0.17091883067425945	-0.08202151874583462	1.6217824073325482	0.19426385887999323	-0.05497311600843666	1.5716663178479058	0.2923001866585299	0.10833530057603229	1.4984352837501622	0.2773055194144336	0.30656871399961844	1.4740566569298794	0.13399076267879262	0.13099997680619566	1.6028588194290676	0.08850010703782982	0.5277700578392409	1.5884033298695175	0.22174677386449218	-0.09072681485874422	1.6892492385814029	0.1955535180742844	-0.06895009791838246	1.7421833642159967	0.2899359746928166	0.09848103875485976	1.8289237971375412	0.32016654206292194	0.32456479044514663	1.9256241525781541	0.2528233676107374	0.3220930613610524	1.9026946622934588	0.04388371477255359	0.5139441145376529	1.8184447278776439	0.22417884860894466
248	4.133333333333334	-0.06054548521925326	1.6609101754764697	0.1699066672414738	-0.08320338937489263	1.6225035091282891	0.1934818992349675	-0.054045217477325234	1.5703256693650338	0.2938880032710634	0.1071410877069084	1.4998528821714932	0.2758608581722494	0.30581907407405706	1.4720841829329399	0.1350559762955702	0.12614016143852425	1.6034133802861492	0.09353958422130214	0.5253932241438176	1.5903811654547622	0.22205804631864218	-0.08995625441490265	1.6879352600083606	0.19631635730036895	-0.06792759373523005	1.7403525129671147	0.2933993229251812	0.09984303446583256	1.8272215183719613	0.3214481189091919	0.32229351722034244	1.9258842520141792	0.25133066367952844	0.3243709783521387	1.901639752952535	0.0441163249743599	0.5123316292560602	1.816210696021359	0.2259773269382179
249	4.15	-0.06045534378122411	1.6611765349595553	0.17049413536174948	-0.08309501949665488	1.622833156864301	0.19404358727442017	-0.05211306633981114	1.5684290444569662	0.29285025067821147	0.10706546986332521	1.5004143537279677	0.2768833914541219	0.30559380992565477	1.472751323657293	0.13589990310525318	0.12746587907457674	1.6042206746832428	0.09394933038779503	0.5235230701180075	1.5937620382311561	0.22518801750514214	-0.0880970150508199	1.6861222687788548	0.19237867178153698	-0.0698803772407458	1.7408284397868399	0.2914461990105429	0.10131288951852982	1.8274100027291318	0.32138287870665727	0.32294799807798746	1.9253798404410978	0.25224746007750026	0.3231247044807447	1.903424355699207	0.03944044410193903	0.530730513717819	1.8196083451187992	0.1771426101162153
250	4.166666666666667	-0.05942369349909249	1.6603636964071304	0.1716234408212836	-0.08194868382507665	1.622214713806178	0.1952995064952309	-0.05128561046408251	1.5702189710489174	0.2918903177978952	0.10758919584334102	1.5004154088286734	0.2781683072109055	0.3005773031383448	1.4736557886860107	0.1347385246556794	0.12490831069102865	1.5998522346290833	0.09736696817773245	0.5227876009254528	1.591656235158311	0.22693548674737532	-0.08880647704875883	1.6871064908320583	0.19198562884973375	-0.06861289765915599	1.7382314728627268	0.2902204980666378	0.10115609522724138	1.8281217044872005	0.3205087643621137	0.3225771685077191	1.9256635114455392	0.25170208115722	0.3240863394818297	1.9021536585813434	0.04045110791898646	0.5290520812755638	1.8160897505782734	0.17852342957703005
251	4.183333333333334	-0.060120477646200855	1.6614793898465658	0.16985721607569704	-0.08238295670317261	1.6208484121336588	0.19506260862844407	-0.051718495862315694	1.5687146398954817	0.2913802625346255	0.10753876799563065	1.5013869123256236	0.27911880793387484	0.2988801328150563	1.4729510631355707	0.1350551994083113	0.12280822027044762	1.600511867028618	0.10254112041327162	0.5248119775585524	1.5874842841847672	0.22427013632193368	-0.08928163472781765	1.6860889020768948	0.19191588188389	-0.06929407160688952	1.7404688966621864	0.2913517679207754	0.10130306292100125	1.828001553552828	0.3203694245103749	0.3227267098220565	1.9274035054092622	0.2515045881753315	0.3237091874204778	1.9015564085965675	0.04044908492175904	0.5171831283273954	1.8096673021326897	0.1799144670660367
252	4.2	-0.06004040931717013	1.660846487562683	0.16948363717494083	-0.08267041602799673	1.6225167218963015	0.19291101041048597	-0.05163494210243685	1.5681496281270766	0.2912826101936628	0.10435447376941137	1.5024635866943494	0.27785920262181596	0.298809252677852	1.4744710744380232	0.1328728890301976	0.11846494667499813	1.5998773587362716	0.10243855924774573	0.5205994126283733	1.5932480003922969	0.22532671551322125	-0.0876888177599347	1.6858104938522696	0.1913446648967498	-0.06932371602416634	1.7402329092707243	0.29091075771098496	0.10128033513865334	1.82765801943105	0.3204786588621818	0.32332457387969293	1.927252536519921	0.25122297272218747	0.3246864317566064	1.89905842727776	0.042941601948070736	0.516755068275548	1.8143167030060376	0.22048842508803143
253	4.216666666666667	-0.058582052597419686	1.6608155203071642	0.1696389376848621	-0.08117737829496056	1.6224344055246958	0.19309303694526123	-0.05179339609863937	1.5703802035869097	0.29335157025853054	0.10440820327094598	1.5018837583002655	0.2785498367749117	0.29911430973097347	1.4762327144195335	0.13451399679558468	0.1172511275616952	1.601105348412783	0.10743454941642477	0.5209182136789109	1.5939527702114584	0.22371145367495968	-0.08777757916333818	1.6854596441216732	0.19175859870509032	-0.07240524295734087	1.7396239972469476	0.29158643692069197	0.10160627331583613	1.827562505155527	0.32037894798993644	0.32383107974686454	1.925181570082369	0.25143536649312076	0.3243380332896741	1.9010783542559635	0.04036235341907278	0.5142417581521276	1.8169598642883447	0.21731127173489134
254	4.233333333333333	-0.05835914402982632	1.6583849481158845	0.1695264526508557	-0.08118556737431855	1.6226509381024128	0.19287236854639458	-0.04969016257188577	1.570867717010751	0.29449507106312883	0.10477842714239045	1.5025282174063515	0.28226641726648505	0.29758435956828805	1.475793031440129	0.13467089780995348	0.11369509842786711	1.600104992556523	0.1059757725222091	0.5412319877567313	1.5970715902874997	0.21452791376868646	-0.08774143189055313	1.6856797087866837	0.19154639205605895	-0.06745839093108584	1.7404081639551994	0.29083610616414196	0.10137067766528907	1.8278865861286953	0.3204394370661965	0.32300810691727383	1.9234910143210622	0.2511728024218829	0.3228736454959343	1.9015557314159948	0.04066543319970199	0.5164867975245628	1.8173087097146359	0.2174924338347006
255	4.25	-0.05955146994312492	1.6581179467143523	0.17005015446296992	-0.08084823421602327	1.6226962619079939	0.19317022572245895	-0.053148153148537026	1.5704656554165557	0.2931875626329916	0.10518616595072433	1.502554213326827	0.2828388423179167	0.29629579997352334	1.4761293864718739	0.1320938068363365	0.11439449317210477	1.5979426946932989	0.10780557978825224	0.5427855855977148	1.598816176275738	0.2122687212779012	-0.08739999877446142	1.6857449095296508	0.19185996187963536	-0.06900271167476457	1.740126528527408	0.2914666508901372	0.10201139446194496	1.827872502181927	0.3205193862011743	0.32167890327117776	1.9243312905326033	0.2514131669286305	0.32336826690246195	1.9016295761468047	0.04068230084274466	0.5152617469923993	1.8172869213293668	0.21756008713966102
256	4.266666666666667	-0.05901885687307039	1.6590326254421783	0.16999871522997956	-0.08180159413542626	1.6234772909990363	0.19341886561726196	-0.05243631157243955	1.5716494809724557	0.29414083296583826	0.1053759869075391	1.5039484409109622	0.28269591097967783	0.2958868910420116	1.475215195768213	0.13108225640078233	0.11436296523382318	1.599161242328116	0.10789252839636422	0.5235785532409346	1.5913324078080915	0.22166997059247823	-0.08862954194037209	1.686510500847631	0.1915824241571828	-0.06998438603172007	1.737620859540275	0.28980622789351396	0.10032598124488114	1.8281187195186408	0.3208718313558022	0.32296432127893826	1.923327107388859	0.25210665643042135	0.32425908524634606	1.901730830189942	0.04055977055771005	0.5128854440574927	1.8117580718864106	0.17761553433827648
257	4.283333333333333	-0.05775714783901509	1.6589718630234602	0.17023938199410246	-0.08190313149979347	1.6231512593504607	0.1934486190195822	-0.05259340177477085	1.571125319004518	0.2938102762389279	0.10493423155672338	1.5033387663474735	0.2824694115458457	0.2960502292112413	1.4771607128265594	0.13243063024565815	0.11154154993577771	1.5989933692756428	0.11162449273786859	0.5235252765505658	1.590944821867252	0.22163641652629903	-0.0887417295314118	1.6862528192938444	0.19162551556036714	-0.06996351410291118	1.7372100100182917	0.2901814726918103	0.10196763563785796	1.8279638469797899	0.32043212391181464	0.32301113616344684	1.9260841443288017	0.2529901223779975	0.32305025176331886	1.901886200439138	0.040811368819754966	0.5127759672696125	1.8108884061296198	0.171129437398341
258	4.3	-0.057481089048395044	1.6591358800523701	0.17010770144599874	-0.08158655897260159	1.623324153133504	0.19339089028042653	-0.05226370027908909	1.5712441829348185	0.2930358656922221	0.10729029724748154	1.5042145102731186	0.2823255264646764	0.294961144161738	1.4775991177115955	0.13463166472182794	0.11008477042072944	1.5987192978070808	0.10760565023947583	0.5417359544481556	1.5990187322187133	0.20463803848207754	-0.08842381068306472	1.6864414969088763	0.19151532791393544	-0.06984221547312232	1.7378301243430359	0.28961798697698865	0.10255688070331076	1.8275228528131284	0.32355439017163723	0.3234005598153004	1.9232880133097192	0.2522300050191421	0.3238281284174052	1.901847698916472	0.04461240284456609	0.5131273626105565	1.810489363277695	0.17260877290432655
259	4.316666666666666	-0.057498519454415274	1.6592619968806896	0.1701188765570148	-0.08158307269229295	1.623424297256157	0.1933927461712068	-0.05235690610612728	1.5713944996496514	0.292881014652774	0.1034736871683742	1.5032541372141608	0.2826069068372273	0.29443425203656365	1.4782461085366387	0.13182584271528125	0.11036474763194123	1.5990877602729	0.11151747233332705	0.5414683576774244	1.596601945353578	0.20706302364910106	-0.08841783007992489	1.6865297943124005	0.19151264282769986	-0.06983759313092106	1.7375351258211595	0.2898937146614209	0.10251722674730634	1.8276463634024227	0.32302262384047997	0.3234409029178009	1.923465600221207	0.2527237756368545	0.32372936354885534	1.9018907437410473	0.044664285611971034	0.5131260734784281	1.8079356383706178	0.17098542545014564
260	4.333333333333333	-0.05759164654620491	1.6593068175787524	0.16977202990946214	-0.08167365044357515	1.6234905267644937	0.19306918234873532	-0.052422686467910345	1.5714290244884899	0.2926734801657087	0.10346463329330584	1.5032774737022196	0.2822738490132192	0.2948234309856612	1.47532343557236	0.13297848662038975	0.11033222801713954	1.599107517747851	0.1111024262014388	0.5266486440723492	1.5928279800914518	0.22112533491280933	-0.08851453876343439	1.6866268548379637	0.19118772741672396	-0.07216580930233256	1.7406814746343855	0.2904889078272861	0.10239683003644004	1.8278510525328997	0.32305552126582215	0.3234686122675623	1.9237257886060775	0.2520155537237141	0.32240938065315317	1.9015638809866626	0.04466666321020981	0.5158846173686207	1.8109072545453475	0.17043835840155
261	4.35	-0.05623791966599309	1.6572652768170346	0.17160108002197122	-0.08061445652545088	1.6239849431899973	0.19308704079773845	-0.05116842695205751	1.572621213389723	0.2918893341980236	0.10397505815204182	1.5044809633543306	0.2820040586024764	0.29420459569898294	1.4743635145380503	0.12734343937406084	0.11081838500692535	1.5996272548866495	0.1112412032961236	0.5431472026678588	1.6008180243974481	0.20889154319404324	-0.08755491624307349	1.6862894868650458	0.18800714872553273	-0.06914595172282534	1.7407372656871467	0.29094849414440344	0.1033493267213396	1.8275446175181342	0.3234036610640943	0.3236836844434086	1.9235688216425633	0.25310342549363013	0.32393785981391077	1.9008327173707458	0.04511710851978839	0.5255983406522626	1.8125216315927368	0.21886802386933357
